HIERARCHY
ROOT joint_Root
{
	OFFSET 0.0 0.0 0.0
	CHANNELS 6 Xposition Yposition Zposition Zrotation Xrotation Yrotation 
	JOINT Hips
	{
		OFFSET 4.5925 91.4895 -427.239
		CHANNELS 6 Xposition Yposition Zposition Zrotation Xrotation Yrotation 
		JOINT Spine
		{
			OFFSET 15.7357 0.0 0.0
			CHANNELS 6 Xposition Yposition Zposition Zrotation Xrotation Yrotation 
			JOINT Chest
			{
				OFFSET 8.98455 -0.406207 0.0
				CHANNELS 6 Xposition Yposition Zposition Zrotation Xrotation Yrotation 
				JOINT Neck
				{
					OFFSET 16.3773 0.0 0.0
					CHANNELS 6 Xposition Yposition Zposition Zrotation Xrotation Yrotation 
					JOINT Head
					{
						OFFSET 6.45672 0.0 0.0
						CHANNELS 6 Xposition Yposition Zposition Zrotation Xrotation Yrotation 
						End Site
						{
							OFFSET 0.0 0.0 0.0
						}
					}
				}
				JOINT Shoulder_L
				{
					OFFSET 12.9942 -0.242716 4.98039
					CHANNELS 6 Xposition Yposition Zposition Zrotation Xrotation Yrotation 
					JOINT UpperArm_L
					{
						OFFSET 5.34809 0.0 0.0
						CHANNELS 6 Xposition Yposition Zposition Zrotation Xrotation Yrotation 
						JOINT LowerArm_L
						{
							OFFSET 24.3286 1.87007e-05 0.0
							CHANNELS 6 Xposition Yposition Zposition Zrotation Xrotation Yrotation 
							JOINT Hand_L
							{
								OFFSET 22.2916 0.0 0.0
								CHANNELS 6 Xposition Yposition Zposition Zrotation Xrotation Yrotation 
								End Site
								{
									OFFSET 0.0 0.0 0.0
								}
							}
						}
					}
				}
				JOINT Shoulder_R
				{
					OFFSET 12.9945 -0.242716 -4.98039
					CHANNELS 6 Xposition Yposition Zposition Zrotation Xrotation Yrotation 
					JOINT UpperArm_R
					{
						OFFSET -5.34813 0.0 0.0
						CHANNELS 6 Xposition Yposition Zposition Zrotation Xrotation Yrotation 
						JOINT LowerArm_R
						{
							OFFSET -24.3289 0.000322201 0.0
							CHANNELS 6 Xposition Yposition Zposition Zrotation Xrotation Yrotation 
							JOINT Hand_R
							{
								OFFSET -22.2915 -0.000108084 0.0
								CHANNELS 6 Xposition Yposition Zposition Zrotation Xrotation Yrotation 
								End Site
								{
									OFFSET 0.0 0.0 0.0
								}
							}
						}
					}
				}
			}
		}
		JOINT UpperLeg_L
		{
			OFFSET -2.19248 -6.46944 0.0
			CHANNELS 6 Xposition Yposition Zposition Zrotation Xrotation Yrotation 
			JOINT LowerLeg_L
			{
				OFFSET 39.0811 0.0 -1.23785e-05
				CHANNELS 6 Xposition Yposition Zposition Zrotation Xrotation Yrotation 
				JOINT Foot_L
				{
					OFFSET 40.9854 0.0 -1.26872e-05
					CHANNELS 6 Xposition Yposition Zposition Zrotation Xrotation Yrotation 
					JOINT Toes_L
					{
						OFFSET 11.7543 0.0 0.0
						CHANNELS 6 Xposition Yposition Zposition Zrotation Xrotation Yrotation 
						End Site
						{
							OFFSET 0.0 0.0 0.0
						}
					}
				}
			}
		}
		JOINT UpperLeg_R
		{
			OFFSET -2.19251 6.46944 0.0
			CHANNELS 6 Xposition Yposition Zposition Zrotation Xrotation Yrotation 
			JOINT LowerLeg_R
			{
				OFFSET -39.0811 -0.00228153 -0.0401928
				CHANNELS 6 Xposition Yposition Zposition Zrotation Xrotation Yrotation 
				JOINT Foot_R
				{
					OFFSET -40.9854 0.0 0.0
					CHANNELS 6 Xposition Yposition Zposition Zrotation Xrotation Yrotation 
					JOINT Toes_R
					{
						OFFSET -11.7543 0.0 0.0
						CHANNELS 6 Xposition Yposition Zposition Zrotation Xrotation Yrotation 
						End Site
						{
							OFFSET 0.0 0.0 0.0
						}
					}
				}
			}
		}
	}
}
MOTION
Frames:	4
Frame Time:	0.0333333
0.000000 0.000000 0.000000 0.000000 0.000000 -0.000000 3.729590 90.215600 0.049571 89.788500 -5.227630 14.557000 15.735700 0.000005 -0.000001 94.882800 80.631500 -98.477200 8.984550 -0.406207 -0.000000 10.962800 1.482620 -7.327950 16.377300 -0.000001 -0.000001 29.761500 -0.711109 -0.828501 6.456720 -0.000001 -0.000000 13.702500 -2.083420 -14.048600 12.994200 -0.242716 4.980390 -92.105400 6.691350 -72.489400 5.348090 -0.000007 -0.000001 -55.506900 34.419400 -19.124900 24.328600 0.000019 0.000005 8.097780 21.543500 -21.179700 22.291600 -0.000001 0.000005 10.018400 5.330380 -0.796683 12.994500 -0.242716 -4.980390 89.861500 0.593671 -76.868800 -5.348130 -0.000001 -0.000004 -63.129200 -33.987900 -66.665100 -24.328900 0.000322 -0.000009 10.831600 0.363591 -88.102100 -22.291500 -0.000108 -0.000004 31.308300 5.390100 -2.618690 -2.192480 -6.469440 -0.000000 -176.307000 -15.185600 3.825340 39.081100 -0.000007 -0.000012 -0.077484 0.118479 33.184700 40.985400 -0.000006 -0.000013 3.387710 4.561700 -72.594000 11.754300 -0.000000 0.000003 -0.000110 -0.001112 -16.620200 -2.192510 6.469440 -0.000001 168.605000 19.703100 -174.734000 -39.081100 -0.002282 -0.040193 -0.181748 0.294060 32.181500 -40.985400 0.000008 0.000006 1.585000 16.039200 -71.368300 -11.754300 -0.000006 -0.000006 -0.003760 -0.048921 -18.563000
0.000000 0.000000 0.000000 0.000000 0.000000 -0.000000 3.777040 90.199200 0.100567 89.792100 -5.263890 14.578300 15.735700 0.000005 -0.000001 94.845900 80.634200 -98.428100 8.984550 -0.406207 -0.000000 10.957700 1.470740 -7.302320 16.377300 -0.000001 -0.000001 29.875100 -1.190730 -0.736221 6.456720 -0.000001 -0.000000 13.603200 -2.805510 -14.260700 12.994200 -0.242716 4.980390 -92.096300 6.682310 -72.538800 5.348090 -0.000007 -0.000001 -55.571700 34.434600 -19.151000 24.328600 0.000019 0.000005 8.091200 21.527600 -21.177400 22.291600 -0.000001 0.000005 10.055600 5.331240 -0.821791 12.994500 -0.242716 -4.980390 89.876800 0.527060 -76.843500 -5.348130 -0.000001 -0.000004 -63.200200 -34.026300 -66.648700 -24.328900 0.000322 -0.000009 10.999700 0.359766 -88.151400 -22.291500 -0.000108 -0.000004 31.316900 5.385200 -2.462690 -2.192480 -6.469440 -0.000000 -176.342000 -15.165900 3.859460 39.081100 -0.000007 -0.000012 -0.078549 0.119894 33.231200 40.985400 -0.000006 -0.000013 3.396620 4.487280 -72.658600 11.754300 -0.000000 0.000003 -0.000118 -0.001184 -16.622800 -2.192510 6.469440 -0.000001 168.606000 19.603600 -174.735000 -39.081100 -0.002282 -0.040193 -0.172969 0.279251 32.260700 -40.985400 0.000008 0.000006 1.674090 15.955300 -71.465800 -11.754300 -0.000006 -0.000006 -0.003769 -0.049016 -18.566800
0.000000 0.000000 0.000000 0.000000 0.000000 -0.000000 3.820080 90.185100 0.152922 89.793800 -5.302090 14.622500 15.735700 0.000005 -0.000001 94.767900 80.620800 -98.343100 8.984550 -0.406207 -0.000000 10.985500 1.447020 -7.286270 16.377300 -0.000001 -0.000001 30.017400 -1.616220 -0.591488 6.456720 -0.000001 -0.000000 13.545100 -3.471340 -14.425900 12.994200 -0.242716 4.980390 -92.093500 6.672830 -72.537400 5.348090 -0.000007 -0.000001 -55.685200 34.421000 -19.063600 24.328600 0.000019 0.000005 8.127130 21.523500 -21.267700 22.291600 -0.000001 0.000005 10.010500 5.329470 -0.769952 12.994500 -0.242716 -4.980390 89.892100 0.461724 -76.842600 -5.348130 -0.000001 -0.000004 -63.405100 -34.138500 -66.713500 -24.328900 0.000322 -0.000009 10.927500 0.347288 -88.203500 -22.291500 -0.000108 -0.000004 31.224700 5.383760 -2.416910 -2.192480 -6.469440 -0.000000 -176.370000 -15.154500 3.929080 39.081100 -0.000007 -0.000012 -0.078184 0.119196 33.262200 40.985400 -0.000006 -0.000013 3.411550 4.419100 -72.720300 11.754300 -0.000000 0.000003 -0.000112 -0.001135 -16.621000 -2.192510 6.469440 -0.000001 168.565000 19.553100 -174.692000 -39.081100 -0.002282 -0.040193 -0.168432 0.271490 32.315300 -40.985400 0.000008 0.000006 1.740220 15.939600 -71.539600 -11.754300 -0.000006 -0.000006 -0.003697 -0.048246 -18.535500
0.000000 0.000000 0.000000 0.000000 0.000000 -0.000000 3.851900 90.171300 0.207380 89.772400 -5.329540 14.601400 15.735700 0.000005 -0.000001 94.670000 80.625800 -98.242800 8.984550 -0.406207 -0.000000 10.977100 1.414830 -7.278500 16.377300 -0.000001 -0.000001 30.259000 -1.915390 -0.412506 6.456720 -0.000001 -0.000000 13.512300 -3.946570 -14.471400 12.994200 -0.242716 4.980390 -92.092100 6.678940 -72.563600 5.348090 -0.000007 -0.000001 -55.746900 34.500100 -18.941400 24.328600 0.000019 0.000005 8.094450 21.494500 -21.213500 22.291600 -0.000001 0.000005 10.058400 5.331010 -0.815069 12.994500 -0.242716 -4.980390 89.906800 0.397693 -76.805800 -5.348130 -0.000001 -0.000004 -63.604000 -34.204100 -66.717500 -24.328900 0.000322 -0.000009 10.771300 0.337811 -88.226600 -22.291500 -0.000108 -0.000004 31.307200 5.387240 -2.527280 -2.192480 -6.469440 -0.000000 -176.372000 -15.156200 3.922930 39.081100 -0.000007 -0.000012 -0.076704 0.116719 33.312100 40.985400 -0.000006 -0.000013 3.422770 4.385760 -72.787200 11.754300 -0.000000 0.000003 -0.000115 -0.001158 -16.621800 -2.192510 6.469440 -0.000001 168.576000 19.494400 -174.700000 -39.081100 -0.002282 -0.040193 -0.169521 0.272877 32.347000 -40.985400 0.000008 0.000006 1.766780 15.908200 -71.598600 -11.754300 -0.000006 -0.000006 -0.003686 -0.048135 -18.531000
